HIERARCHY
ROOT Hips
{
  OFFSET 13.6774 106.653 -34.4427
  CHANNELS 6 Xposition Yposition Zposition Zrotation Xrotation Yrotation
  JOINT ToSpine
  {
    OFFSET -2.69724 7.43032 -0.144315
    CHANNELS 3 Zrotation Xrotation Yrotation
    JOINT Spine
    {
      OFFSET -0.0310711 10.7595 1.96963
      CHANNELS 3 Zrotation Xrotation Yrotation
      JOINT Spine1
      {
        OFFSET 19.9056 3.91189 0.764692
        CHANNELS 3 Zrotation Xrotation Yrotation
        JOINT Neck
        {
          OFFSET 25.9749 7.03908 -0.130764
          CHANNELS 3 Zrotation Xrotation Yrotation
          JOINT Head
          {
            OFFSET 9.52751 0.295786 -0.907742
            CHANNELS 3 Zrotation Xrotation Yrotation
            End Site
            {
              OFFSET 16.4037 0.713936 2.7358
            }
          }
        }
        JOINT LeftShoulder
        {
          OFFSET 17.7449 4.33886 11.7777
          CHANNELS 3 Zrotation Xrotation Yrotation
          JOINT LeftArm
          {
            OFFSET 0.911315 1.27913 9.80584
            CHANNELS 3 Zrotation Xrotation Yrotation
            JOINT LeftForeArm
            {
              OFFSET 28.6126 1.18197 -3.53199
              CHANNELS 3 Zrotation Xrotation Yrotation
              JOINT LeftHand
              {
                OFFSET 27.5088 0.0218783 0.327423
                CHANNELS 3 Zrotation Xrotation Yrotation
                End Site
                {
                  OFFSET 18.6038 -0.000155887 0.382096
                }
              }
            }
          }
        }
        JOINT RightShoulder
        {
          OFFSET 17.1009 2.89543 -12.2328
          CHANNELS 3 Zrotation Xrotation Yrotation
          JOINT RightArm
          {
            OFFSET 1.4228 0.178766 -10.211
            CHANNELS 3 Zrotation Xrotation Yrotation
            JOINT RightForeArm
            {
              OFFSET 28.733 1.87905 2.64907
              CHANNELS 3 Zrotation Xrotation Yrotation
              JOINT RightHand
              {
                OFFSET 27.4588 0.290562 -0.101845
                CHANNELS 3 Zrotation Xrotation Yrotation
                End Site
                {
                  OFFSET 17.8396 -0.255518 -0.000602873
                }
              }
            }
          }
        }
      }
    }
  }
  JOINT LeftUpLeg
  {
    OFFSET -5.61296 -2.22332 -10.2353
    CHANNELS 3 Zrotation Xrotation Yrotation
    JOINT LeftLeg
    {
      OFFSET 2.56703 -44.7417 -7.93097
      CHANNELS 3 Zrotation Xrotation Yrotation
      JOINT LeftFoot
      {
        OFFSET 3.16933 -46.5642 -3.96578
        CHANNELS 3 Zrotation Xrotation Yrotation
        JOINT LeftToeBase
        {
          OFFSET 0.346054 -6.02161 12.8035
          CHANNELS 3 Zrotation Xrotation Yrotation
          End Site
          {
            OFFSET 0.134235 -1.35082 5.13018
          }
        }
      }
    }
  }
  JOINT RightUpLeg
  {
    OFFSET -5.7928 -1.72406 10.6446
    CHANNELS 3 Zrotation Xrotation Yrotation
    JOINT RightLeg
    {
      OFFSET -2.57161 -44.7178 -7.85259
      CHANNELS 3 Zrotation Xrotation Yrotation
      JOINT RightFoot
      {
        OFFSET -3.10148 -46.5936 -4.03391
        CHANNELS 3 Zrotation Xrotation Yrotation
        JOINT RightToeBase
        {
          OFFSET -0.0828122 -6.13587 12.8035
          CHANNELS 3 Zrotation Xrotation Yrotation
          End Site
          {
            OFFSET -0.131328 -1.35082 5.13018
          }
        }
      }
    }
  }
}
MOTION
Frames: 12
Frame Time: 0.03333333333333333
0.0000 93.1000 0.0000 53.1880 -41.9789 -7.0316 -70.9989 0.0632 88.0138 91.8956 71.9851 -26.8513 0.8667 21.9487 -0.8869 -130.4254 25.4604 154.9548 145.0139 63.5778 -122.0626 -0.4331 -19.7825 -21.6545 -62.0468 18.7840 -162.0528 27.8994 -2.2706 -92.3821 -0.0950 -0.0574 0.0816 -3.3812 8.0279 48.4558 -119.9822 -11.7951 71.1674 14.7779 -10.9089 57.1066 0.1152 0.1821 -0.1510 -18.2881 28.3300 82.0514 -7.8738 65.2674 -3.0388 -0.0789 -20.3969 -2.1866 3.8023 -11.7376 12.7648 -27.0951 -4.7430 59.1993 3.9910 30.8777 16.7791 0.0567 8.7837 -1.0455 -1.1043 -5.2063 8.0305 
0.0000 93.1000 0.0000 54.0591 -41.8101 -7.2108 -70.9971 0.2071 88.0132 90.8260 71.9243 -24.8422 1.0017 21.4699 -0.5879 -129.0005 25.0107 154.9731 144.9780 63.6861 -121.7773 0.0389 -19.8686 -21.8973 -63.2557 20.7845 -159.8598 26.9549 -1.9481 -93.0342 -0.0262 0.0475 0.0164 -2.9839 7.8839 48.4867 -120.2457 -11.5821 71.7297 16.1284 -10.3382 59.9469 0.0021 0.1326 -0.0385 -21.0490 27.9303 83.8531 -7.6677 64.3836 -3.6949 -0.3026 -19.4507 -2.4733 3.9194 -12.2896 13.0350 -28.0851 -5.2013 61.0410 5.1135 29.8867 15.7712 0.4700 8.4908 -0.9743 -1.1083 -5.2742 8.7406 
0.0000 93.1000 0.0000 55.1649 -41.4305 -8.1341 -70.9958 0.5441 88.0108 89.9773 71.8225 -22.3326 1.2354 21.1465 -0.1985 -126.2028 24.6597 153.2858 149.6993 64.1492 -124.0140 0.1316 -19.3519 -22.0561 -63.3401 22.7696 -159.0279 26.4059 -2.8416 -94.2120 0.0096 0.3535 -0.2034 -2.9002 7.3983 48.5942 -120.8095 -11.2998 73.7394 16.7122 -9.2971 62.7861 -0.2054 -0.2432 -0.2784 -23.9648 27.0763 85.9617 -7.2531 62.3046 -4.0686 -0.1661 -19.6577 -2.6899 3.6521 -11.8982 11.8404 -29.5430 -6.0658 63.6505 5.0027 30.1366 13.8823 0.9051 7.9512 -0.7064 -1.6721 -3.8820 10.3361 
0.0000 93.1000 0.0000 57.0607 -41.2886 -7.9154 -70.9971 0.6545 88.0081 87.0134 71.8864 -21.5457 1.4882 20.8067 0.2850 -125.5766 24.2268 153.1998 151.7461 64.5556 -126.1216 0.2247 -18.9493 -22.3188 -64.9001 24.4447 -155.9107 25.7747 -3.0737 -95.3576 0.0801 0.4705 -0.2695 -2.7992 6.9914 47.9398 -122.8819 -11.0498 74.1740 18.0383 -8.6650 65.8102 -0.3518 -0.3728 -0.3704 -27.9793 26.2183 88.8845 -7.1446 60.4390 -5.0366 -0.4943 -19.2716 -2.6052 3.7456 -11.7228 12.1978 -30.7354 -6.0738 67.1243 4.8693 29.0402 10.7974 1.0321 7.9127 -0.6505 -1.3048 -2.6130 10.4376 
0.0000 93.1000 0.0000 58.3228 -40.9276 -9.1034 -71.0011 0.0111 88.0059 85.6032 71.3309 -18.1346 1.4823 20.7509 -0.1867 -123.1413 23.9606 153.4236 153.7783 65.0492 -126.2278 0.0820 -18.7959 -21.9500 -66.0513 25.1298 -153.9890 24.8270 -3.0202 -95.2371 0.0210 -0.0612 -0.0907 -2.9317 6.9611 46.6017 -124.3819 -10.9963 74.8875 18.7087 -7.9515 68.8115 0.0612 0.1219 0.0636 -30.8457 25.3829 91.0444 -5.8918 58.2864 -5.9286 -0.3469 -18.9454 -2.2131 3.4388 -11.5529 12.1976 -31.9836 -5.8303 70.8200 4.9973 27.4504 9.1034 1.0213 6.7929 -0.8680 -1.1186 -1.2742 10.2088 
0.0000 93.1000 0.0000 59.1936 -40.6469 -9.9582 -71.0001 0.1125 88.0062 82.9423 71.1487 -14.6891 1.4704 20.7063 -0.1502 -122.3022 24.4498 153.4769 156.5887 65.9826 -128.3547 -0.1861 -18.6262 -22.0549 -67.0317 26.2417 -152.7350 25.7431 -3.4116 -95.7643 -0.1036 0.0368 -0.1893 -2.9836 7.3573 44.9988 -125.8633 -12.1977 74.5872 19.0600 -7.4690 72.1881 -0.1001 0.0599 0.0376 -33.3491 23.8221 92.7268 -6.1680 56.3074 -6.7354 -0.2974 -19.2611 -2.1391 3.2924 -11.7687 12.9144 -33.7177 -5.8674 73.3328 4.7294 25.6767 6.8710 1.1893 6.7353 -0.8026 -1.7459 -2.0060 10.2783 
0.0000 93.1000 0.0000 60.0560 -40.2230 -10.0363 -71.0018 0.0075 88.0059 80.7647 71.2001 -9.7285 2.0658 20.3559 0.3344 -122.4134 24.5821 153.3000 158.7575 67.1443 -130.4100 -0.4467 -18.0759 -22.1934 -67.1473 27.9920 -151.9857 25.1605 -3.8854 -96.4014 -0.1741 -0.0122 -0.0705 -3.0586 7.6108 43.2478 -126.9664 -12.2281 74.9357 19.9551 -6.2767 74.2367 -0.1407 0.0987 0.0425 -35.8554 22.3601 93.8481 -5.2311 53.4450 -7.2377 -0.4283 -18.5707 -1.8345 3.3142 -11.6799 13.1051 -34.6484 -6.0763 76.0018 3.9063 24.7247 5.9050 1.6426 7.2308 -0.9583 -1.9934 -2.2442 10.3070 
0.0000 93.1000 0.0000 59.8318 -40.2546 -11.0576 -71.0008 -0.1925 88.0064 77.9619 71.1066 -5.4177 2.7834 20.1312 0.5025 -123.1800 25.0827 153.5046 160.8072 67.8797 -131.8542 -0.0496 -17.7988 -22.0547 -68.0536 29.6981 -150.9017 24.3367 -3.7560 -96.4472 0.0633 -0.2120 -0.0287 -2.8237 7.7584 42.3382 -128.8178 -12.7152 76.0213 21.0883 -5.3946 76.7813 -0.0586 0.2555 0.3064 -38.4305 20.9789 95.0448 -4.6750 51.1771 -5.9380 0.0794 -18.6447 -2.1409 2.8468 -10.5216 11.5961 -35.8515 -6.0438 78.0041 3.9275 25.1621 5.0201 1.2233 7.1707 -0.7655 -1.3990 -4.3978 10.8014 
0.0000 93.1000 0.0000 61.5694 -39.9388 -11.0824 -71.0000 -0.0653 88.0049 78.0429 71.0671 -3.6206 2.6429 20.0721 0.6551 -121.3292 25.3859 152.1767 166.6840 69.1797 -137.0478 -0.2063 -17.7042 -21.3977 -68.4598 31.0124 -149.9215 24.7244 -4.1209 -96.9218 -0.0420 -0.1286 -0.0690 -2.8388 7.5684 41.5172 -130.2908 -12.2213 77.5967 21.5698 -4.5105 78.5853 0.0047 0.1169 0.2065 -41.1273 20.0419 95.8837 -3.8031 49.4573 -5.9506 0.1809 -17.8907 -2.0130 2.4889 -9.7867 11.1250 -36.7615 -7.3211 78.8053 3.0930 24.0230 3.9095 0.5900 6.8788 -0.9117 -1.3099 -4.7888 10.2053 
0.0000 93.1000 0.0000 61.8379 -39.3462 -12.1306 -70.9988 0.3740 88.0063 75.9653 70.8687 -0.8329 3.2169 19.7730 0.7620 -121.1871 25.8257 153.2775 162.4130 70.1762 -133.8667 0.0860 -17.5071 -21.3640 -68.8098 31.7683 -147.9378 25.0352 -4.0230 -97.6689 0.0114 0.2144 -0.3157 -2.6722 7.6709 41.0466 -131.8397 -11.1611 78.8529 22.0771 -4.1054 79.8343 -0.2785 -0.2592 -0.0581 -43.0282 17.9904 96.0672 -3.8576 48.4793 -5.8897 -0.3804 -18.1282 -2.2164 2.4282 -8.9550 11.0533 -37.5311 -8.1031 79.1646 2.5475 23.9886 2.8866 0.1995 6.1623 -0.5647 -1.9690 -5.0768 12.3413 
0.0000 93.1000 0.0000 63.2508 -39.1479 -11.9928 -71.0029 0.0327 88.0043 75.1781 70.9825 0.4146 2.9748 19.7296 1.6005 -121.2710 26.6419 152.2819 170.5434 71.2540 -140.7901 -0.1957 -17.6356 -21.7604 -68.1315 33.0797 -147.9651 24.5642 -3.9552 -98.4646 0.1361 -0.0340 -0.2165 -2.8456 7.5221 40.1437 -132.7442 -11.2502 80.7650 22.3730 -3.7886 80.8688 -0.1444 0.0003 0.1199 -45.3151 15.9659 96.0773 -4.1577 46.1162 -5.2855 -0.6079 -18.2520 -1.9769 2.3492 -8.6595 11.4961 -38.8622 -8.8355 80.0790 2.0978 24.2401 4.0307 0.6491 5.4125 -0.8813 -1.8899 -5.1428 10.7595 
0.0000 93.1000 0.0000 64.2718 -38.7879 -11.9412 -71.0183 -3.3341 88.0020 74.6403 70.6824 1.0220 1.4688 19.2525 1.3146 -122.3908 26.6454 150.6780 172.8505 71.6618 -145.0093 -0.3252 -17.9937 -22.2722 -68.1558 33.8620 -147.7477 23.4957 -4.1497 -98.7589 -0.1705 -3.0946 1.4466 -3.3363 7.6315 39.1028 -133.1640 -12.1720 82.5764 22.2125 -3.6449 82.0450 2.2082 3.0948 2.6746 -47.3457 14.4223 95.7942 -3.0650 44.1607 -5.1746 -1.4222 -17.9329 -0.2641 1.0062 -8.1931 11.8938 -39.6582 -9.8715 80.0876 1.5728 24.2910 3.9711 -0.7198 5.4363 -2.7533 -0.4171 -4.4923 10.5004 
